<?xml version="1.0" encoding="iso-8859-1"?>
<!-- Generator: Adobe Illustrator 18.1.1, SVG Export Plug-In . SVG Version: 6.00 Build 0)  -->
<svg version="1.1" id="Capa_1" xmlns="http://www.w3.org/2000/svg" xmlns:xlink="http://www.w3.org/1999/xlink" x="0px" y="0px"
	 viewBox="0 0 499.233 499.233" style="enable-background:new 0 0 499.233 499.233;" xml:space="preserve">
<g>
	<g>
		<path d="M105.117,266.617h127.5v127.5c0,9.35,7.65,17,17,17c9.35,0,17-7.65,17-17v-127.5h127.5c9.35,0,17-7.65,17-17
			c0-9.35-7.65-17-17-17h-127.5v-127.5c0-9.35-7.65-17-17-17c-9.35,0-17,7.65-17,17v127.5h-127.5c-9.35,0-17,7.65-17,17
			C88.117,258.967,95.767,266.617,105.117,266.617z"/>
		<path d="M249.617,499.233c137.7,0,249.617-111.917,249.617-249.617S387.317,0,249.617,0S0,111.917,0,249.617
			S111.917,499.233,249.617,499.233z M249.617,34c119,0,215.617,96.617,215.617,215.617s-96.617,215.617-215.617,215.617
			S34,368.617,34,249.617S130.617,34,249.617,34z"/>
	</g>
</g>
<g>
</g>
<g>
</g>
<g>
</g>
<g>
</g>
<g>
</g>
<g>
</g>
<g>
</g>
<g>
</g>
<g>
</g>
<g>
</g>
<g>
</g>
<g>
</g>
<g>
</g>
<g>
</g>
<g>
</g>
</svg>
